<svg xmlns="http://www.w3.org/2000/svg" xmlns:xlink="http://www.w3.org/1999/xlink" viewBox="0 0 73.33 51.5"><defs><style>.cls-1{fill:url(#DÈgradÈ_sans_nom_18);}.cls-2{fill:url(#Jaune_vert);}</style><linearGradient id="DÈgradÈ_sans_nom_18" x1="10.75" y1="-1.5" x2="62.46" y2="60.11" gradientUnits="userSpaceOnUse"><stop offset="0" stop-color="#4d4d4d"/><stop offset="1" stop-color="#1a1a1a"/></linearGradient><linearGradient id="Jaune_vert" x1="32.23" y1="8.37" x2="41.1" y2="17.24" gradientUnits="userSpaceOnUse"><stop offset="0" stop-color="#d1e4a5"/><stop offset="0.5" stop-color="#acd479"/><stop offset="1" stop-color="#76b83f"/></linearGradient></defs><title>virtual assistantAsset 89</title><g id="Layer_2" data-name="Layer 2"><g id="Calque_187_-_copie" data-name="Calque 187 - copie"><g id="Calque_180_-_copie" data-name="Calque 180 - copie"><path class="cls-1" d="M72.36,7.12h-20a1,1,0,0,0-1,1V49H49.31V.43A.43.43,0,0,0,48.88,0H24.45A.43.43,0,0,0,24,.43V49H21.91V7.87a.76.76,0,0,0-.76-.75H.75A.76.76,0,0,0,0,7.87V50.75a.76.76,0,0,0,.75.75H72.36a1,1,0,0,0,1-1V8.09A1,1,0,0,0,72.36,7.12ZM7,44H4.28V41.32H7Zm0-5.34H4.28V36H7Zm0-5.34H4.28V30.64H7ZM7,28H4.28V25.31H7Zm0-5.34H4.28V20H7ZM7,17.3H4.28V14.64H7ZM12.29,44H9.62V41.32h2.67Zm0-5.34H9.62V36h2.67Zm0-5.34H9.62V30.64h2.67Zm0-5.33H9.62V25.31h2.67Zm0-5.34H9.62V20h2.67Zm0-5.34H9.62V14.64h2.67ZM17.62,44H15V41.32h2.66Zm0-5.34H15V36h2.66Zm0-5.34H15V30.64h2.66Zm0-5.33H15V25.31h2.66Zm0-5.34H15V20h2.66Zm0-5.34H15V14.64h2.66ZM41.58,49H31.75v-15h9.83Zm2.5-31.63A7,7,0,0,1,41,20.48c-7.92,4-15.79-3.84-11.77-11.77a7,7,0,0,1,3.07-3.06C40.24,1.62,48.11,9.49,44.08,17.41ZM58.38,44H55.71V41.32h2.67Zm0-5.34H55.71V36h2.67Zm0-5.34H55.71V30.64h2.67Zm0-5.33H55.71V25.31h2.67Zm0-5.34H55.71V20h2.67Zm0-5.34H55.71V14.64h2.67ZM63.72,44H61.05V41.32h2.67Zm0-5.34H61.05V36h2.67Zm0-5.34H61.05V30.64h2.67Zm0-5.33H61.05V25.31h2.67Zm0-5.34H61.05V20h2.67Zm0-5.34H61.05V14.64h2.67ZM69.05,44H66.38V41.32h2.67Zm0-5.34H66.38V36h2.67Zm0-5.34H66.38V30.64h2.67Zm0-5.33H66.38V25.31h2.67Zm0-5.34H66.38V20h2.67Zm0-5.34H66.38V14.64h2.67Z"/><path class="cls-2" d="M39.18,10.16V6.51a.13.13,0,0,0-.13-.13H34.28a.13.13,0,0,0-.13.13v3.65a.13.13,0,0,1-.13.13H30.37a.13.13,0,0,0-.13.14v4.76a.12.12,0,0,0,.13.13H34a.13.13,0,0,1,.13.13v3.66a.13.13,0,0,0,.13.13h4.77a.13.13,0,0,0,.13-.13V15.45a.13.13,0,0,1,.13-.13H43a.13.13,0,0,0,.13-.13V10.43a.13.13,0,0,0-.13-.14H39.31A.13.13,0,0,1,39.18,10.16Z"/></g></g></g></svg>