<svg xmlns="http://www.w3.org/2000/svg" xmlns:xlink="http://www.w3.org/1999/xlink" viewBox="0 0 51 66.4"><defs><style>.cls-1{fill:url(#DÈgradÈ_sans_nom_18);}.cls-2{fill:url(#DÈgradÈ_sans_nom_18-2);}.cls-3{fill:url(#DÈgradÈ_sans_nom_18-3);}.cls-4{fill:url(#DÈgradÈ_sans_nom_18-4);}.cls-5{fill:url(#Jaune_vert);}</style><linearGradient id="DÈgradÈ_sans_nom_18" x1="-5.26" y1="37.27" x2="14.26" y2="60.54" gradientUnits="userSpaceOnUse"><stop offset="0" stop-color="#4d4d4d"/><stop offset="1" stop-color="#1a1a1a"/></linearGradient><linearGradient id="DÈgradÈ_sans_nom_18-2" x1="6.26" y1="31.5" x2="28.74" y2="58.3" xlink:href="#DÈgradÈ_sans_nom_18"/><linearGradient id="DÈgradÈ_sans_nom_18-3" x1="18.78" y1="26.74" x2="44.22" y2="57.06" xlink:href="#DÈgradÈ_sans_nom_18"/><linearGradient id="DÈgradÈ_sans_nom_18-4" x1="31.84" y1="22.53" x2="60.16" y2="56.27" xlink:href="#DÈgradÈ_sans_nom_18"/><linearGradient id="Jaune_vert" x1="17.35" y1="3.72" x2="32.53" y2="18.9" gradientUnits="userSpaceOnUse"><stop offset="0" stop-color="#d1e4a5"/><stop offset="0.5" stop-color="#acd479"/><stop offset="1" stop-color="#76b83f"/></linearGradient></defs><title>virtual assistantAsset 90</title><g id="Layer_2" data-name="Layer 2"><g id="Calque_187_-_copie" data-name="Calque 187 - copie"><g id="Calque_4_-_copie" data-name="Calque 4 - copie"><rect class="cls-1" y="31.4" width="9" height="35" rx="2.71" ry="2.71"/><rect class="cls-2" x="13" y="24.4" width="9" height="41" rx="2.71" ry="2.71"/><rect class="cls-3" x="27" y="18.4" width="9" height="47" rx="2.71" ry="2.71"/><rect class="cls-4" x="41" y="13.4" width="10" height="52" rx="2.71" ry="2.71"/><path class="cls-5" d="M3.94,22.61a2.27,2.27,0,0,0,2.27-2.27A2.32,2.32,0,0,0,6,19.29l10.3-8.88a2.23,2.23,0,0,0,1,.23,2.27,2.27,0,0,0,2-1.15l10,3.75a2.27,2.27,0,0,0,4.52-.35,3.14,3.14,0,0,0,0-.45L44.42,4a2.22,2.22,0,0,0,1.52.59A2.29,2.29,0,1,0,43.79,3L33.21,11.4a2.29,2.29,0,0,0-1.72-.79,2,2,0,0,0-1.89,1.47L20,8.39v0A2.48,2.48,0,0,0,17.49,6.1,2.37,2.37,0,0,0,15.1,8.37a2.23,2.23,0,0,0,.35,1.29L5.24,18.45A2.33,2.33,0,0,0,4,18.06a2.28,2.28,0,1,0,0,4.55Z"/></g></g></g></svg>