<svg xmlns="http://www.w3.org/2000/svg" xmlns:xlink="http://www.w3.org/1999/xlink" viewBox="0 0 76.56 47.83"><defs><style>.cls-1{fill:url(#DÈgradÈ_sans_nom_18);}.cls-2{fill:url(#DÈgradÈ_sans_nom_18-2);}.cls-3{fill:url(#Jaune_vert);}.cls-4{fill:url(#Jaune_vert-2);}.cls-5{fill:url(#Jaune_vert-3);}.cls-6{fill:url(#Jaune_vert-4);}.cls-7{fill:url(#Jaune_vert-5);}.cls-8{fill:url(#DÈgradÈ_sans_nom_18-3);}.cls-9{fill:url(#DÈgradÈ_sans_nom_18-4);}</style><linearGradient id="DÈgradÈ_sans_nom_18" x1="38.65" y1="40.96" x2="43.81" y2="47.12" gradientUnits="userSpaceOnUse"><stop offset="0" stop-color="#4d4d4d"/><stop offset="1" stop-color="#1a1a1a"/></linearGradient><linearGradient id="DÈgradÈ_sans_nom_18-2" x1="20.97" y1="7.96" x2="51.09" y2="43.85" xlink:href="#DÈgradÈ_sans_nom_18"/><linearGradient id="Jaune_vert" x1="38.38" y1="2.77" x2="62.99" y2="27.39" gradientUnits="userSpaceOnUse"><stop offset="0" stop-color="#d1e4a5"/><stop offset="0.5" stop-color="#acd479"/><stop offset="1" stop-color="#76b83f"/></linearGradient><linearGradient id="Jaune_vert-2" x1="21.73" y1="32.39" x2="25.92" y2="36.58" gradientTransform="translate(27.86 -7.23) rotate(40.16)" xlink:href="#Jaune_vert"/><linearGradient id="Jaune_vert-3" x1="17.67" y1="27.13" x2="21.86" y2="31.32" gradientTransform="translate(23.51 -5.86) rotate(40.16)" xlink:href="#Jaune_vert"/><linearGradient id="Jaune_vert-4" x1="27.44" y1="36.28" x2="31.63" y2="40.47" gradientTransform="translate(31.71 -10) rotate(40.15)" xlink:href="#Jaune_vert"/><linearGradient id="Jaune_vert-5" x1="33.3" y1="40.23" x2="37.49" y2="44.42" gradientTransform="translate(35.64 -12.85) rotate(40.15)" xlink:href="#Jaune_vert"/><linearGradient id="DÈgradÈ_sans_nom_18-3" x1="60.06" y1="3.67" x2="78.28" y2="25.38" gradientTransform="translate(2.76 -9.67) rotate(8.16)" xlink:href="#DÈgradÈ_sans_nom_18"/><linearGradient id="DÈgradÈ_sans_nom_18-4" x1="2.51" y1="7.41" x2="16.81" y2="24.45" gradientTransform="translate(21.21 1.31) rotate(69.52)" xlink:href="#DÈgradÈ_sans_nom_18"/></defs><title>virtual assistantAsset 91</title><g id="Layer_2" data-name="Layer 2"><g id="Calque_187_-_copie" data-name="Calque 187 - copie"><g id="Calque_4_-_copie" data-name="Calque 4 - copie"><path class="cls-1" d="M44.25,42.65l-3.67-3.31a3.18,3.18,0,0,1-.76,3.93l-2,1.71,2.4,2.17A2.68,2.68,0,0,0,44,47l.47-.52A2.68,2.68,0,0,0,44.25,42.65Z"/><path class="cls-2" d="M62.18,26.81l-2.51-2.27-.82-.7c-.39-.33-.78-.68-1.23-1.05-1.38-1.16-3-2.81-4.67-4.55-1.31-1.34-2.66-2.73-4-3.93-.5-.46-1-1-1.51-1.57-1.23-1.35-2.61-2.87-3.73-2.87-.19,0-.77,0-1.54,1.07a12.75,12.75,0,0,1-9.62,5.23,5.79,5.79,0,0,1-1.78-.26,3.58,3.58,0,0,1-2.6-2.2,2.22,2.22,0,0,1,.3-2c.15-.19.77-.84,1.94-2.05,1-1,2.21-2.32,3.11-3.29.41-.45.83-.86,1.24-1.25a22.44,22.44,0,0,0-7,2.11,15.21,15.21,0,0,1-8,1.69s-7,17.72-7.18,18.85c-.14.76.64,1.17,1.91,1.59a3.28,3.28,0,0,1,.84-1.13l4.24-3.57a3.2,3.2,0,0,1,4.5.38l.49.59a3.19,3.19,0,0,1,.32,3.65,3.08,3.08,0,0,1,.8-.1,3.19,3.19,0,0,1,2.44,1.13l.5.59a3.19,3.19,0,0,1,.6,3l.12-.1a3.2,3.2,0,0,1,4.5.38l.49.59a3.2,3.2,0,0,1,.51,3.29l.36-.31a3.19,3.19,0,0,1,2-.75,3.1,3.1,0,0,1,1,.17c.28-1,1.09-.31,1.09-.31l6.87,6.2a3.28,3.28,0,0,0,4.63-.24l0,0a3.3,3.3,0,0,0-.24-4.64l-6.32-5.71h0a.41.41,0,0,1,0-.6c.26-.28.57,0,.57,0l7.72,7a3.28,3.28,0,0,0,4.63-.23l.37-.41a3.3,3.3,0,0,0-.24-4.64l-7.71-7c-.45-.44-.22-.78-.1-.89a.55.55,0,0,1,.77,0l.06.05h0l7,6.34a3.28,3.28,0,0,0,4.63-.24l.37-.41A3.28,3.28,0,0,0,62.18,26.81Z"/><path class="cls-3" d="M53.11,5.15c-3-.49-8.19-3.1-11.22-2.89S36,5.08,34.19,7s-4.73,4.94-5,5.29-.71,2,1.9,2.83,7.7-.85,10.45-4.66,5.62,1,8,3.24c3,2.75,6.17,6.42,8.59,8.45,2.67,2.25,3.91,3.6,6,4.05.07.07-3.1-21-3.1-21A39.28,39.28,0,0,1,53.11,5.15Z"/><rect class="cls-4" x="18.7" y="31.76" width="10.23" height="5.46" rx="2.35" ry="2.35" transform="translate(-16.63 23.49) rotate(-40.16)"/><rect class="cls-5" x="14.65" y="26.49" width="10.23" height="5.46" rx="2.35" ry="2.35" transform="translate(-14.19 19.64) rotate(-40.16)"/><rect class="cls-6" x="24.42" y="35.64" width="10.23" height="5.46" rx="2.35" ry="2.35" transform="translate(-17.78 28.09) rotate(-40.15)"/><rect class="cls-7" x="30.28" y="39.6" width="10.23" height="5.46" rx="2.35" ry="2.35" transform="translate(-18.95 32.8) rotate(-40.15)"/><rect class="cls-8" x="63.42" y="0.36" width="11.5" height="28.32" rx="2.36" ry="2.36" transform="translate(-1.36 9.96) rotate(-8.16)"/><rect class="cls-9" x="-4.5" y="10.18" width="28.32" height="11.5" rx="2.36" ry="2.36" transform="translate(-8.64 19.41) rotate(-69.52)"/></g></g></g></svg>