<svg xmlns="http://www.w3.org/2000/svg" xmlns:xlink="http://www.w3.org/1999/xlink" viewBox="0 0 72.92 63.11"><defs><style>.cls-1{fill:url(#DÈgradÈ_sans_nom_18);}.cls-2{fill:url(#Jaune_vert);}</style><linearGradient id="DÈgradÈ_sans_nom_18" x1="7.56" y1="15.12" x2="49.59" y2="65.21" gradientUnits="userSpaceOnUse"><stop offset="0" stop-color="#4d4d4d"/><stop offset="1" stop-color="#1a1a1a"/></linearGradient><linearGradient id="Jaune_vert" x1="54.18" y1="44.03" x2="68.07" y2="57.92" gradientUnits="userSpaceOnUse"><stop offset="0" stop-color="#d1e4a5"/><stop offset="0.5" stop-color="#acd479"/><stop offset="1" stop-color="#76b83f"/></linearGradient></defs><title>virtual assistantAsset 88</title><g id="Layer_2" data-name="Layer 2"><g id="Calque_187_-_copie" data-name="Calque 187 - copie"><g id="Calque_4_-_copie" data-name="Calque 4 - copie"><g id="Calque_114_-_copie" data-name="Calque 114 - copie"><path class="cls-1" d="M47.34,52.19v-2.5a3,3,0,0,1,3-3h6.39V40.93l-1.41-.53c-3.31-1.29-6.56-2.72-10-3.75a5.22,5.22,0,0,1-2.54-1.75,4.8,4.8,0,0,0-1.39-1.23,2,2,0,0,1-1.09-2.22,5.6,5.6,0,0,1,.4-1.83,18.9,18.9,0,0,0,1.53-4.39,1.05,1.05,0,0,0,1.27-.5,11.68,11.68,0,0,0,.77-1.87c.41-1.46.75-2.93,1.12-4.4a2.82,2.82,0,0,0,.07-.31A1,1,0,0,0,45,17c-.18-.08-.37-.12-.61-.2l.2-.84a13.73,13.73,0,0,0-1.2-9.44,9.33,9.33,0,0,0-5.75-5c-.74-.24-1.5-.43-2.26-.62C33.65.5,31.9.57,30.23.05A3.43,3.43,0,0,0,29,.1c-.83.06-1.6.33-2.45.35a2.83,2.83,0,0,0-2.34,1.09,2.09,2.09,0,0,1-1,.65,3.52,3.52,0,0,0-1.87,2c-.21.57-.62,1.08-.78,1.67s-.06,1.24-.18,1.85a16.74,16.74,0,0,0-.26,3.74A23.34,23.34,0,0,0,21,16.73c-.45.34-1.06.54-1.11,1.22a3.88,3.88,0,0,0,.2,2.16,20.32,20.32,0,0,1,1.21,3.38,4.32,4.32,0,0,0,.67,1.4,4.8,4.8,0,0,0,1.17.75,11.43,11.43,0,0,0,1.38,3.61,2.67,2.67,0,0,1,.32,2c-.15.82-.35,1.63-.5,2.31a12.79,12.79,0,0,0-1.64,1.41,8,8,0,0,1-3.47,2.32c-3,1.19-6.06,2.28-9.18,3.17a25.28,25.28,0,0,0-3.37,1.26,6.8,6.8,0,0,0-3.8,4c-.73,2-1.47,4-2.14,6.05a14,14,0,0,0-.72,4,8.49,8.49,0,0,0,.17,2A1.58,1.58,0,0,0,1.72,59q.63,0,1.26,0l53.78.11v-4H50.37A3,3,0,0,1,47.34,52.19Z"/><path class="cls-2" d="M71.89,48.65H63.5V39.88a1,1,0,0,0-1-1H59.79a1,1,0,0,0-1,1v8.77H50.37a1,1,0,0,0-1,1v2.5a1,1,0,0,0,1,1h8.39v8.85a1,1,0,0,0,1,1h2.67a1,1,0,0,0,1-1V53.22h8.39a1,1,0,0,0,1-1v-2.5A1,1,0,0,0,71.89,48.65Z"/></g></g></g></g></svg>