<svg xmlns="http://www.w3.org/2000/svg" xmlns:xlink="http://www.w3.org/1999/xlink" viewBox="0 0 69 50"><defs><style>.cls-1,.cls-2{fill-rule:evenodd;}.cls-1{fill:url(#Jaune_vert);}.cls-2{fill:url(#DÈgradÈ_sans_nom_18);}</style><linearGradient id="Jaune_vert" x1="20.97" y1="3.23" x2="46.14" y2="28.39" gradientUnits="userSpaceOnUse"><stop offset="0" stop-color="#d1e4a5"/><stop offset="0.5" stop-color="#acd479"/><stop offset="1" stop-color="#76b83f"/></linearGradient><linearGradient id="DÈgradÈ_sans_nom_18" x1="17.28" y1="21.9" x2="51.35" y2="62.5" gradientUnits="userSpaceOnUse"><stop offset="0" stop-color="#4d4d4d"/><stop offset="1" stop-color="#1a1a1a"/></linearGradient></defs><title>virtual assistantAsset 100</title><g id="Layer_2" data-name="Layer 2"><g id="Calque_187_-_copie" data-name="Calque 187 - copie"><g id="Calque_4_-_copie" data-name="Calque 4 - copie"><path class="cls-1" d="M33.35,40.66a.34.34,0,0,0,.52,0L43.23,30l9.11-10.4a.35.35,0,0,0-.26-.58H43.35a.35.35,0,0,1-.35-.35V.35A.35.35,0,0,0,42.65,0H24.35A.35.35,0,0,0,24,.35v18.3a.35.35,0,0,1-.35.35H15.14a.35.35,0,0,0-.26.58L24,30Z"/><path class="cls-2" d="M65.66,35H48.54a.45.45,0,0,0-.25.07l-14.4,8.78a.46.46,0,0,1-.48,0L19,35.07a.45.45,0,0,0-.25-.07H2.63A2.63,2.63,0,0,0,0,37.63v8.78A3.61,3.61,0,0,0,3.59,50h61.1A4.32,4.32,0,0,0,69,45.69V38.34A3.35,3.35,0,0,0,65.66,35Zm-7.8,3.81a.87.87,0,1,1,0-1.73.87.87,0,0,1,0,1.73Zm3,0a.87.87,0,1,1,0-1.73.87.87,0,0,1,0,1.73Zm3,0a.87.87,0,1,1,0-1.73.87.87,0,0,1,0,1.73Z"/></g></g></g></svg>