<svg xmlns="http://www.w3.org/2000/svg" xmlns:xlink="http://www.w3.org/1999/xlink" viewBox="0 0 60.87 66.49"><defs><style>.cls-1,.cls-2{fill-rule:evenodd;}.cls-1{fill:url(#DÈgradÈ_sans_nom_18);}.cls-2{fill:url(#Jaune_vert);}</style><linearGradient id="DÈgradÈ_sans_nom_18" x1="14.02" y1="36.92" x2="46.87" y2="76.06" gradientUnits="userSpaceOnUse"><stop offset="0" stop-color="#4d4d4d"/><stop offset="1" stop-color="#1a1a1a"/></linearGradient><linearGradient id="Jaune_vert" x1="15.72" y1="13.91" x2="45.17" y2="43.36" gradientUnits="userSpaceOnUse"><stop offset="0" stop-color="#d1e4a5"/><stop offset="0.5" stop-color="#acd479"/><stop offset="1" stop-color="#76b83f"/></linearGradient></defs><title>virtual assistantAsset 99</title><g id="Layer_2" data-name="Layer 2"><g id="Calque_187_-_copie" data-name="Calque 187 - copie"><g id="Calque_4_-_copie" data-name="Calque 4 - copie"><path class="cls-1" d="M60.83,50.68a4.4,4.4,0,0,0-4.23-4.41,4.46,4.46,0,0,0-4.67,4,13,13,0,0,0-.06,1.4c0,1.68,0,3.35,0,5a6.82,6.82,0,0,1-.14,1,3.53,3.53,0,0,1-.56.1l-41.7,0a.33.33,0,0,1-.14,0c-.05,0-.08-.07-.23-.19,0-.41-.05-.92-.06-1.43,0-1.78.05-3.56,0-5.33A4.46,4.46,0,0,0,3.11,46.5,4.44,4.44,0,0,0,0,50.8c0,3.81,0,7.63,0,11.44a4.39,4.39,0,0,0,2.52,4,5.39,5.39,0,0,0,1.57.21c18,0,34.27-.09,52.26-.09a7.16,7.16,0,0,0,2-.16,4.4,4.4,0,0,0,2.4-3.95C60.87,58.42,60.88,54.55,60.83,50.68Z"/><path class="cls-2" d="M46.81,15.56,32.51,1.25C32.25,1,32,.72,31.72.49a1.92,1.92,0,0,0-2.57,0c-.2.17-.38.36-.57.54L13.84,15.79a4.71,4.71,0,0,0-.72.83,1.51,1.51,0,0,0,1,2.3A7.43,7.43,0,0,0,15.4,19h4.86c.46,0,.92.05,1.6.08,0,.74,0,1.31,0,1.87V47A12.25,12.25,0,0,0,22,48.68a3.34,3.34,0,0,0,2.93,2.84,10.38,10.38,0,0,0,1.25,0H34c.58,0,1.15,0,1.73,0A3.4,3.4,0,0,0,39,48.33c0-.47,0-.94,0-1.41q0-13,0-26a4,4,0,0,1,.17-1.79A10.8,10.8,0,0,1,40.33,19c1.68,0,3.35,0,5,0a10.38,10.38,0,0,0,1.25,0,1.52,1.52,0,0,0,1.07-2.47A6.72,6.72,0,0,0,46.81,15.56Z"/></g></g></g></svg>